<svg enable-background="new 0 0 58 43" height="43" viewBox="0 0 58 43" width="58" xmlns="http://www.w3.org/2000/svg"><path d="m0 0h58v43h-58z" fill="none"/><path d="m1.2212 27.482-.291-1.2949c.374.0576.7227.082 1.0547.082.3486 0 .5234-.1992.5234-.5889v-3.0791c-.5234.207-1.0625.4062-1.5781.5801l-.3564-1.3613c.6553-.1484 1.2949-.332 1.9346-.5645v-3.1455h-1.6446v-1.3193h1.6445v-2.5322h1.3359v2.5322h1.4199v1.3193h-1.4199v2.5898c.4902-.2324.9707-.4814 1.4531-.7393v1.3457c-.4824.2656-.9629.498-1.4531.7305v3.9922c0 .9629-.4648 1.4531-1.3945 1.4531h-1.2285zm7.8525-11.2559v-1.9434h1.3281v1.9434h3.4033v1.3281h-3.4033v2.0664h2.8467v1.2207c-.4648 1.5098-1.2363 2.8223-2.332 3.9092.8965.6729 2 1.2705 3.2949 1.7686l-.7129 1.1367c-1.3945-.6143-2.5654-1.3027-3.5283-2.0664-1.1045.8633-2.4404 1.5518-4.0088 2.1074l-.6562-1.1445c1.4531-.4648 2.6895-1.0625 3.6934-1.8184-1.1289-1.1289-1.8926-2.3984-2.2822-3.8105h-.755v-1.3027h3.1123v-2.0664h-3.4033v-1.3281h3.4033zm.8633 7.7109c.8721-.8711 1.5273-1.8672 1.9678-3.0137h-3.8936c.3487 1.1212.9873 2.1338 1.9258 3.0137zm11.2881-6.375v-3.3535h1.3613v3.3535h5.5371v1.3203h-4.2754c.9297 2.2656 2.499 4.2832 4.707 6.0586l-.9297 1.1621c-2.3984-2.125-4.084-4.5068-5.0391-7.1465v8.6582h-1.3613v-8.6327c-1.0625 2.9131-2.8223 5.3037-5.2793 7.1797l-.7461-1.2363c2.1738-1.5693 3.7676-3.5859 4.7637-6.043h-4.2578v-1.3204zm5.6445-1.0703-1.1035.7793c-.4648-.7217-1.1035-1.502-1.8848-2.3818l1.0713-.6641c.8301.8633 1.4698 1.627 1.917 2.2666zm10.2442-2.25v1.7852h5.5703v1.3359h-5.5703v1.9004h3.8682v1.2207c-.7637 1.5605-1.8838 2.9053-3.3369 4.0254.6475.3496 1.3613.6816 2.1328.9717 1.0469.374 2.1338.7061 3.2959.9717l-.8057 1.2197c-1.2617-.3408-2.4482-.7393-3.5859-1.2197-.7969-.3496-1.5352-.7227-2.2158-1.1377-1.6104 1.0049-3.5615 1.8018-5.8193 2.4072l-.8047-1.2285c2.1172-.4727 3.9346-1.1543 5.4287-1.9844-.7217-.5723-1.3613-1.2109-1.9014-1.9082-.5059-.6396-.8711-1.3203-1.0869-2.043h-1.0128v-1.2949h4.4326v-1.9004h-5.5449v-1.3359h5.5449v-1.7852zm2.2988 6.3164h-5.7598c.2568.6816.6387 1.2793 1.1289 1.793.4893.5234 1.0449 1.0049 1.6514 1.4277 1.2783-.9121 2.2822-1.9834 2.9795-3.2207zm5.3887 6.9571-.291-1.3281c.373.0576.7383.082 1.0879.082.3398 0 .5391-.1816.5391-.5557v-3.0381c-.5146.1738-1.0215.3486-1.5439.5059l-.3486-1.3857c.6387-.1494 1.2617-.3232 1.8926-.5312v-3.0303h-1.6523v-1.3281h1.6523v-2.4814h1.3535v2.4814h1.3857v1.3281h-1.3857v2.5234c.4727-.2236.9375-.4473 1.4023-.6797v1.4102c-.4648.2246-.9463.4492-1.4023.6484v3.9258c0 .9551-.4824 1.4531-1.4121 1.4531zm9.5371-6.3506v-1.0049h1.3779v1.0049h1.71v1.2949h-1.71v3.6279c0 .9541-.4814 1.4521-1.4365 1.4521h-1.917l-.2988-1.3369c.6064.042 1.1709.0664 1.7178.0664.374 0 .5566-.1816.5566-.5312v-3.2783h-5.1719v-1.2949zm-.3321-6.8399v1.3447h2.8633v1.2695h-2.8633v1.3789h3.4033v1.3027h-8.0107v-1.3027h3.2539v-1.3788h-2.7305v-1.2695h2.7305v-1.3447h1.3535zm-1.5019 10.8662-1.0801.7461c-.3984-.6885-.9297-1.4766-1.6016-2.332l1.1211-.6895c.6797.8633 1.2032 1.6192 1.5606 2.2754z" fill="#fff"/></svg>