<svg enable-background="new 0 0 20 44" height="44" viewBox="0 0 20 44" width="20" xmlns="http://www.w3.org/2000/svg"><path d="m0 0h20v44h-20z" fill="none"/><path d="m5.9951 22.6498c.1582.4688.2344.9844.2461 1.5352 0 .8203-.123 1.4004-.3457 1.7051-.2637.3691-.8613.5566-1.7988.5566h-.3223l-.334-.8613h.5273c.5742 0 .9316-.0879 1.0781-.2402.1641-.2051.252-.5801.252-1.1602 0-.0996-.0059-.2051-.0059-.293-1.1074.832-2.5664 1.5176-4.3477 2.0742l-.4922-.832c1.998-.5684 3.5566-1.2949 4.6699-2.1738-.0586-.2051-.1406-.4102-.2227-.5977-.9609.7207-2.2441 1.3008-3.832 1.7637l-.4805-.8379c1.6699-.4336 2.9707-.9727 3.9023-1.6465-.0996-.1289-.1934-.252-.293-.375-.041.0234-.0762.0293-.1055.0527-.668.3164-1.6055.6562-2.8184 1.0137l-.4922-.8086c.9434-.1934 1.8223-.4629 2.6426-.8027.2461-.0996.4805-.2051.709-.3164h-2.2965v-.9023h6.0879v.9023h-2.2735c-.252.1641-.4863.3164-.709.4629.2988.3281.5449.6738.75 1.0488.9023-.2754 1.7637-.6562 2.584-1.1836l.6563.6562c-.5391.3398-1.0957.627-1.7051.8672.4746 1.2012 1.2422 2.1621 2.291 2.9062l-.7031.8086c-1.084-.9141-1.8691-2.0625-2.3672-3.4336-.1524.0411-.3047.0703-.4512.1114zm-.5625-4.8399h3.8438v1.9102h-.9727v-1.002h-6.8496v1.002h-.9727v-1.9102h3.9668c-.0996-.2637-.2168-.498-.3281-.7148l.9961-.1758c.1113.2695.2168.5684.3164.8906zm5.666 8.666-.7676-.6855c.6973-1.2832 1.0547-2.9355 1.0664-4.9395v-3.5098h7.752v2.6777h-2.8184v.9902h3.2168v.8965h-3.2168v1.0312h2.543v3.5449h-.9375v-.4395h-4.0078v.4395h-.9316v-3.5449h2.3848v-1.0312h-3.0645c-.1231 1.7404-.5215 3.2579-1.2188 4.5704zm1.2598-8.2441v.9023h5.8242v-.9023zm0 1.7871v.9902h3.0234v-.9902zm5.5781 5.1445v-1.3418h-4.0078v1.3418z" fill="#fff"/></svg>