<svg enable-background="new 0 0 78 43" height="43" viewBox="0 0 78 43" width="78" xmlns="http://www.w3.org/2000/svg"><path d="m0 0h78v43h-78z" fill="none"/><path d="m7.8971 23.564h-4.7637l-1.2041 3.4277h-1.5693l4.416-11.9785h1.4785l4.416 11.9785h-1.5693zm-4.3242-1.2705h3.8848l-1.876-5.3457h-.1328zm16.7588.2236c0 2.7979-1.4854 4.6328-3.7607 4.6328-1.2773 0-2.3066-.5566-2.7969-1.5029h-.1328v4.333h-1.4277v-11.9365h1.3613v1.4941h.1328c.5723-1.0293 1.6436-1.6514 2.8633-1.6514 2.2831 0 3.7607 1.8174 3.7607 4.6309zm-1.4776 0c0-2.0918-.9795-3.3447-2.6152-3.3447-1.6182 0-2.6387 1.2861-2.6387 3.3447 0 2.0508 1.0205 3.3457 2.6309 3.3457 1.6435 0 2.623-1.2539 2.623-3.3457zm11.4629 0c0 2.7979-1.4863 4.6328-3.7598 4.6328-1.2793 0-2.3086-.5566-2.7979-1.5029h-.1328v4.333h-1.4277v-11.9365h1.3613v1.4941h.1328c.5732-1.0293 1.6436-1.6514 2.8643-1.6514 2.2823 0 3.7598 1.8174 3.7598 4.6309zm-1.4775 0c0-2.0918-.9795-3.3447-2.6143-3.3447-1.6191 0-2.6406 1.2861-2.6406 3.3447 0 2.0508 1.0215 3.3457 2.6318 3.3457 1.6436 0 2.6231-1.2539 2.6231-3.3457zm3.4277-8.0264h1.4277v12.501h-1.4277zm11.1807 10.1846c-.415 1.5273-1.8096 2.4746-3.7686 2.4746-2.4814 0-4.0342-1.793-4.0342-4.624 0-2.8135 1.5771-4.6396 4.0342-4.6396 2.415 0 3.8848 1.7178 3.8848 4.498v.5488h-6.4326v.0664c.0742 1.7676 1.0625 2.8887 2.5811 2.8887 1.1533 0 1.9346-.4238 2.3076-1.2129zm-6.3164-2.8965h4.9297c-.0332-1.5859-.9785-2.6309-2.3984-2.6309-1.4278.0001-2.4239 1.045-2.5313 2.6309zm17.8047-6.6904c-.5898.9385-1.1875 1.6768-1.7686 2.2578.083.1748.166.332.2158.498.4238 1.1709.6562 2.8389.6973 5.0049 0 2.3496-.291 3.7607-.8711 4.25-.3496.25-.8057.3828-1.3867.3828-.498 0-.9043-.0176-1.1953-.0176l-.4062-1.2949c.4648.0586.8965.0918 1.3105.0918.3984 0 .6641-.0918.7891-.2324.291-.3486.457-1.4355.457-3.2539 0-.4395-.0176-.8301-.042-1.2031-.7061.9297-1.4941 1.7266-2.3994 2.3818l-.7715-1.1621c1.2617-.8467 2.2578-1.8262 2.9805-2.9883-.0996-.5312-.2246-.9873-.3652-1.4033-.0254-.0576-.042-.0996-.0586-.124-.5234.4072-1.1289.8135-1.8008 1.2373l-.7393-1.2129c.6729-.3145 1.3115-.7383 1.917-1.2285-.4062-.6387-.9121-1.2031-1.5098-1.7344l1.0703-.8301c.5566.5391 1.0215 1.0957 1.4111 1.6523.4648-.5312.9053-1.1211 1.3193-1.7773zm2.8047 1.4853v-2.2734h1.3789v2.2734h2.8887v6.1182h-2.873v2.8721c.6152-.083 1.1797-.1914 1.7021-.291-.1748-.6133-.3564-1.1953-.5557-1.7422l1.1201-.374c.4814 1.2285.9131 2.6396 1.3115 4.2334l-1.2617.3242c-.0996-.4238-.1992-.8301-.2822-1.2041-1.4775.3154-3.6611.6221-6.5654.8799l-.2168-1.3867c1.2285-.0742 2.3662-.166 3.3789-.2656v-3.0459h-2.8389v-6.1182h2.8135zm.042 1.2706h-1.5107v3.5771h1.5107zm2.8886 0h-1.5518v3.5771h1.5518zm11.5713 4.4072c.2246.6641.332 1.3945.3496 2.1758 0 1.1621-.1748 1.9834-.4902 2.415-.373.5225-1.2207.7881-2.5488.7881h-.4561l-.4736-1.2197h.748c.8125 0 1.3193-.124 1.5273-.3408.2324-.29.3564-.8213.3564-1.6426 0-.1416-.0088-.291-.0088-.416-1.5684 1.1797-3.6348 2.1504-6.1582 2.9395l-.6973-1.1797c2.8301-.8047 5.0381-1.834 6.6152-3.0791-.083-.29-.1992-.5811-.3154-.8467-1.3613 1.0215-3.1787 1.8428-5.4287 2.498l-.6807-1.1865c2.3662-.6143 4.208-1.3779 5.5283-2.333-.1406-.1816-.2734-.3564-.415-.5312-.0576.0332-.1084.042-.1494.0752-.9463.4482-2.2744.9297-3.9922 1.4365l-.6973-1.1465c1.3359-.2734 2.5811-.6553 3.7432-1.1367.3486-.1406.6807-.291 1.0049-.4482h-3.2539v-1.2783h8.624v1.2783h-3.2207c-.3564.2324-.6885.4482-1.0049.6553.4238.4648.7725.9551 1.0625 1.4863 1.2793-.3906 2.499-.9297 3.6611-1.6768l.9297.9297c-.7637.4814-1.5518.8877-2.415 1.2285.6719 1.7021 1.7598 3.0635 3.2451 4.1172l-.9961 1.1455c-1.5361-1.2949-2.6475-2.9219-3.3535-4.8643-.2157.0576-.4315.0996-.6395.1572zm-.7969-6.8555h5.4453v2.7051h-1.377v-1.4189h-9.7041v1.4189h-1.3779v-2.7051h5.6191c-.1406-.374-.3066-.7061-.4648-1.0137l1.4121-.248c.1573.3809.3067.8047.4473 1.2617z" fill="#fff"/></svg>