<svg enable-background="new 0 0 28 43" height="43" viewBox="0 0 28 43" width="28" xmlns="http://www.w3.org/2000/svg"><path d="m0 0h28v43h-28z" fill="none"/><path d="m3.0303 22.7749-.8545-1.1035v5.8682h-1.3203v-9.4297h3.0215c-.207-.5146-.4238-1.0293-.6895-1.4854h-2.9375v-1.3281h5.7021c-.1328-.3496-.2744-.6816-.4229-.9717l1.5273-.2324c.1484.3652.2734.7725.4141 1.2041h5.7197v1.3281h-3.0459c-.2246.5469-.457 1.0371-.7061 1.4854h3.1211v7.7861c0 1.1035-.4814 1.6768-1.4189 1.6768h-1.4862l-.3486-1.2529 1.3945.041c.3486 0 .54-.2578.54-.7559v-6.2754h-9.0644v2.2832c1.1621-.6387 2.125-1.3945 2.9043-2.25l.9717.8555c-.5889.7051-1.2705 1.3359-2.042 1.9092h5.5371v3.8271h-5.6699v-3.7275c-.2735.1904-.5479.374-.8467.5478zm4.8974-4.665c.2578-.4893.498-.9795.7051-1.4854h-3.9336c.207.4473.4141.9375.5801 1.4854zm.2911 5.2461h-3.0059v1.3779h3.0059zm2.9882-1.627-1.0293 1.0205c-.6729-.7881-1.627-1.6182-2.8477-2.5146l.9297-.8799c1.1622.7891 2.1505 1.5937 2.9473 2.374zm11.2383-6.1845h5.3047v1.3369h-10.543v3.0215c-.041 3.1963-.5723 5.7441-1.5762 7.6699l-1.0469-.9297c.8057-1.6182 1.2207-3.8682 1.2539-6.7402v-4.3584h5.1963c-.1992-.4141-.4316-.7969-.6641-1.1445l1.4365-.2324c.2326.4228.4318.8788.6388 1.3769zm.3486 1.7851v1.5684h4.624v1.3037h-4.624v1.8428h3.8018v5.5859h-1.3613v-.6387h-5.7275v.6387h-1.3613v-5.5859h3.2705v-4.7148h1.3778zm2.4405 8.3672v-2.3652h-5.7275v2.3652z" fill="#fff"/></svg>