<svg enable-background="new 0 0 41 44" height="44" viewBox="0 0 41 44" width="41" xmlns="http://www.w3.org/2000/svg"><path d="m0 0h41v44h-41z" fill="none"/><path d="m.8916 26.3412-.2051-.9141c.2637.041.5098.0586.7441.0586.2461 0 .3691-.1406.3691-.416v-2.1738c-.3691.1465-.75.2871-1.1133.4102l-.252-.9609c.4629-.1055.9141-.2344 1.3652-.3984v-2.2207h-1.16v-.9316h1.1602v-1.7871h.9434v1.7871h1.002v.9316h-1.002v1.8281c.3457-.1641.6855-.3398 1.0254-.5215v.9492c-.3398.1875-.6797.3516-1.0254.5156v2.8184c0 .6797-.3281 1.0254-.9844 1.0254h-.8672zm5.543-7.9453v-1.3711h.9375v1.3711h2.4023v.9375h-2.4023v1.459h2.0098v.8613c-.3281 1.0664-.873 1.9922-1.6465 2.7598.6328.4746 1.4121.8965 2.3262 1.248l-.5039.8027c-.9844-.4336-1.8105-.9199-2.4902-1.459-.7793.6094-1.7227 1.0957-2.8301 1.4883l-.4629-.8086c1.0254-.3281 1.8984-.75 2.6074-1.2832-.7969-.7969-1.3359-1.6934-1.6113-2.6895h-.5333v-.9199h2.1973v-1.459h-2.4024v-.9375h2.4024zm.6093 5.4433c.6152-.6152 1.0781-1.3184 1.3887-2.127h-2.748c.2461.7911.6972 1.5059 1.3593 2.127zm7.9688-4.5v-2.3672h.9609v2.3672h3.9082v.9316h-3.0176c.6562 1.5996 1.7637 3.0234 3.3223 4.2773l-.6562.8203c-1.6934-1.5-2.8828-3.1816-3.5566-5.0449v6.1113h-.9609v-6.0938c-.75 2.0566-1.9922 3.7441-3.7266 5.0684l-.5273-.873c1.5352-1.1074 2.6602-2.5312 3.3633-4.2656h-3.0059v-.9316zm3.9844-.7558-.7793.5508c-.3281-.5098-.7793-1.0605-1.3301-1.6816l.7559-.4688c.5859.6093 1.0371 1.1484 1.3535 1.5996zm7.2304-1.5879v1.2598h3.9316v.9434h-3.9316v1.3418h2.7305v.8613c-.5391 1.1016-1.3301 2.0508-2.3555 2.8418.457.2461.9609.4805 1.5059.6855.7383.2637 1.5059.498 2.3262.6855l-.5684.8613c-.8906-.2402-1.7285-.5215-2.5312-.8613-.5625-.2461-1.084-.5098-1.5645-.8027-1.1367.709-2.5137 1.2715-4.1074 1.6992l-.5684-.8672c1.4941-.334 2.7773-.8145 3.832-1.4004-.5098-.4043-.9609-.8555-1.3418-1.3477-.3574-.4512-.6152-.9316-.7676-1.4414h-.7148v-.9141h3.1289v-1.3418h-3.9141v-.9434h3.9141v-1.2598h.9961zm1.6231 4.459h-4.0664c.1816.4805.4512.9023.7969 1.2656.3457.3691.7383.709 1.166 1.0078.9023-.6445 1.6113-1.4004 2.1035-2.2734zm3.8027 4.9101-.2051-.9375c.2637.041.5215.0586.7676.0586.2402 0 .3809-.1289.3809-.3926v-2.1445c-.3633.123-.7207.2461-1.0898.3574l-.2461-.9785c.4512-.1055.8906-.2285 1.3359-.375v-2.1387h-1.166v-.9375h1.166v-1.752h.9551v1.752h.9785v.9375h-.9785v1.7812c.334-.1582.6621-.3164.9902-.4805v.9961c-.3281.1582-.668.3164-.9902.457v2.7715c0 .6738-.3398 1.0254-.9961 1.0254h-.9024zm6.7324-4.4824v-.709h.9727v.709h1.207v.9141h-1.207v2.5605c0 .6738-.3398 1.0254-1.0137 1.0254h-1.3535l-.2109-.9434c.4277.0293.8262.0469 1.2129.0469.2637 0 .3926-.1289.3926-.375v-2.3145h-3.6504v-.9141h3.6503zm-.2343-4.8281v.9492h2.0215v.8965h-2.0215v.9727h2.4023v.9199h-5.6543v-.9199h2.2969v-.9727h-1.9277v-.8965h1.9277v-.9492zm-1.0606 7.6699-.7617.5273c-.2812-.4863-.6562-1.043-1.1309-1.6465l.791-.4863c.4805.6094.8497 1.1426 1.1016 1.6055z" fill="#fff"/></svg>