<svg enable-background="new 0 0 20 44" height="44" viewBox="0 0 20 44" width="20" xmlns="http://www.w3.org/2000/svg"><path d="m0 0h20v44h-20z" fill="none"/><path d="m2.2568 23.0189-.6035-.7793v4.1426h-.9316v-6.6562h2.1328c-.1465-.3633-.2988-.7266-.4863-1.0488h-2.0743v-.9375h4.0254c-.0938-.2461-.1934-.4805-.2988-.6855l1.0781-.1642c.1055.2578.1934.5449.293.8496h4.0371v.9375h-2.1504c-.1582.3867-.3223.7324-.498 1.0488h2.2031v5.4961c0 .7793-.3398 1.1836-1.002 1.1836h-1.0488l-.2461-.8848.9844.0293c.2461 0 .3809-.1816.3809-.5332v-4.4297h-6.3985v1.6113c.8203-.4512 1.5-.9844 2.0508-1.5879l.6855.6035c-.416.498-.8965.9434-1.4414 1.3477h3.9082v2.7012h-4.002v-2.6309c-.1933.1349-.3866.2638-.5976.3868zm3.4571-3.293c.1816-.3457.3516-.6914.498-1.0488h-2.7773c.1465.3164.293.6621.4102 1.0488zm.205 3.7032h-2.121v.9727h2.1211v-.9727zm2.1094-1.1485-.7266.7207c-.4746-.5566-1.1484-1.1426-2.0098-1.7754l.6562-.6211c.8205.5567 1.5177 1.125 2.0802 1.6758zm7.9336-4.3652h3.7441v.9434h-7.4414v2.1328c-.0293 2.2559-.4043 4.0547-1.1133 5.4141l-.7383-.6562c.5684-1.1426.8613-2.7305.8848-4.7578v-3.0762h3.668c-.1406-.293-.3047-.5625-.4688-.8086l1.0137-.1641c.1641.2988.3047.621.4512.9726zm.2461 1.2598v1.1074h3.2637v.9199h-3.2637v1.3008h2.6836v3.9434h-.9609v-.4512h-4.043v.4512h-.9609v-3.9434h2.3086v-3.3281zm1.7227 5.9062v-1.6699h-4.043v1.6699z" fill="#fff"/></svg>