<svg enable-background="new 0 0 28 43" height="43" viewBox="0 0 28 43" width="28" xmlns="http://www.w3.org/2000/svg"><path d="m0 0h28v43h-28z" fill="none"/><path d="m8.3262 22.2515c.2246.6641.332 1.3945.3496 2.1758 0 1.1621-.1748 1.9834-.4902 2.415-.3731.5225-1.2207.7881-2.5488.7881h-.4561l-.4737-1.2197h.748c.8125 0 1.3193-.124 1.5273-.3408.2324-.29.3564-.8213.3564-1.6426 0-.1416-.0088-.291-.0088-.416-1.5684 1.1797-3.6348 2.1504-6.1582 2.9395l-.6971-1.1798c2.8301-.8047 5.0381-1.834 6.6152-3.0791-.083-.29-.1992-.5811-.3154-.8467-1.3613 1.0215-3.1787 1.8428-5.4287 2.498l-.6807-1.1864c2.3662-.6143 4.208-1.3779 5.5283-2.333-.1406-.1816-.2734-.3564-.415-.5312-.0576.0332-.1084.042-.1494.0752-.9463.4482-2.2744.9297-3.9922 1.4365l-.6973-1.1465c1.3359-.2734 2.5811-.6553 3.7432-1.1367.3486-.1406.6807-.291 1.0049-.4482h-3.2539v-1.2783h8.624v1.2783h-3.2207c-.3564.2323-.6885.4481-1.0049.6551.4238.4648.7725.9551 1.0625 1.4863 1.2793-.3906 2.499-.9297 3.6611-1.6768l.9297.9297c-.7637.4814-1.5518.8877-2.415 1.2285.6719 1.7021 1.7598 3.0635 3.2451 4.1172l-.9961 1.1455c-1.5361-1.2949-2.6475-2.9219-3.3535-4.8643-.2158.0578-.4316.0998-.6396.1574zm-.7969-6.8555h5.4453v2.7051h-1.377v-1.4189h-9.704v1.4189h-1.378v-2.7051h5.6191c-.1406-.374-.3066-.7061-.4648-1.0137l1.4121-.248c.1573.3809.3067.8047.4473 1.2617zm8.0273 12.2764-1.0879-.9717c.9883-1.8174 1.4941-4.1582 1.5107-6.9971v-4.9716h10.9814v3.793h-3.9922v1.4023h4.5566v1.2705h-4.5566v1.4609h3.6025v5.0225h-1.3281v-.623h-5.6777v.623h-1.3193v-5.0225h3.3779v-1.4609h-4.3408c-.1747 2.4658-.7392 4.6152-1.7265 6.4746zm1.7842-11.6787v1.2773h8.251v-1.2773zm0 2.5312v1.4023h4.2832v-1.4023zm7.9024 7.2881v-1.9014h-5.6777v1.9014z" fill="#fff"/></svg>