<svg enable-background="new 0 0 56 44" height="44" viewBox="0 0 56 44" width="56" xmlns="http://www.w3.org/2000/svg"><path d="m0 0h56v44h-56z" fill="none"/><path d="m5.6903 23.5755h-3.3633l-.8496 2.4199h-1.1074l3.1172-8.4551h1.043l3.1172 8.4551h-1.1075zm-3.0527-.8964h2.7422l-1.3242-3.7734h-.0938zm11.9736.1582c0 1.9746-1.0488 3.2695-2.6543 3.2695-.9023 0-1.6289-.3926-1.9746-1.0605h-.0937v3.0586h-1.0079v-8.4258h.9609v1.0547h.0938c.4043-.7266 1.1602-1.166 2.0215-1.166 1.6113-.0001 2.6543 1.2831 2.6543 3.2695zm-1.043 0c0-1.4766-.6914-2.3613-1.8457-2.3613-1.1426 0-1.8633.9082-1.8633 2.3613 0 1.4473.7207 2.3613 1.8574 2.3613 1.1602 0 1.8516-.8848 1.8516-2.3613zm8.2354 0c0 1.9746-1.0488 3.2695-2.6543 3.2695-.9023 0-1.6289-.3926-1.9746-1.0605h-.0938v3.0586h-1.0078v-8.4258h.9609v1.0547h.0938c.4043-.7266 1.1602-1.166 2.0215-1.166 1.6113-.0001 2.6543 1.2831 2.6543 3.2695zm-1.043 0c0-1.4766-.6914-2.3613-1.8457-2.3613-1.1426 0-1.8633.9082-1.8633 2.3613 0 1.4473.7207 2.3613 1.8574 2.3613 1.1602 0 1.8516-.8848 1.8516-2.3613zm2.5635-5.6661h1.0078v8.8242h-1.0078zm8.0361 7.1895c-.293 1.0781-1.2773 1.7461-2.6602 1.7461-1.752 0-2.8477-1.2656-2.8477-3.2637 0-1.9863 1.1133-3.2754 2.8477-3.2754 1.7051 0 2.7422 1.2129 2.7422 3.1758v.3867h-4.541v.0469c.0527 1.248.75 2.0391 1.8223 2.0391.8145 0 1.3652-.2988 1.6289-.8555zm-4.4589-2.0449h3.4805c-.0234-1.1191-.6914-1.8574-1.6934-1.8574-1.0079 0-1.711.7382-1.7871 1.8574zm12.7128-4.7227c-.416.6621-.8379 1.1836-1.248 1.5938.0586.123.1172.2344.1523.3516.2988.8262.4629 2.0039.4922 3.5332 0 1.6582-.2051 2.6543-.6152 3-.2461.1758-.5684.2695-.9785.2695-.3516 0-.6387-.0117-.8438-.0117l-.2871-.9141c.3281.041.6328.0645.9258.0645.2812 0 .4688-.0645.5566-.1641.2051-.2461.3223-1.0137.3223-2.2969 0-.3105-.0117-.5859-.0293-.8496-.498.6562-1.0547 1.2188-1.6934 1.6816l-.5449-.8203c.8906-.5977 1.5938-1.2891 2.1035-2.1094-.0703-.375-.1582-.6973-.2578-.9902-.0176-.041-.0293-.0703-.041-.0879-.3691.2871-.7969.5742-1.2715.873l-.5215-.8555c.4746-.2227.9258-.5215 1.3535-.8672-.2871-.4512-.6445-.8496-1.0664-1.2246l.7559-.5859c.3926.3809.7207.7734.9961 1.166.3281-.375.6387-.791.9316-1.2539zm1.9805 1.0489v-1.6055h.9727v1.6055h2.0391v4.3184h-2.0274v2.0273c.4336-.0586.832-.1348 1.2012-.2051-.123-.4336-.252-.8438-.3926-1.2305l.791-.2637c.3398.8672.6445 1.8633.9258 2.9883l-.8906.2285c-.0703-.2988-.1406-.5859-.1992-.8496-1.043.2227-2.584.4395-4.6348.6211l-.1523-.9785c.8672-.0527 1.6699-.1172 2.3848-.1875v-2.1504h-2.0039v-4.3183zm.0293.8964h-1.0664v2.5254h1.0664zm2.0391 0h-1.0957v2.5254h1.0957zm8.1679 3.1114c.1582.4688.2344.9844.2461 1.5352 0 .8203-.123 1.4004-.3457 1.7051-.2637.3691-.8613.5566-1.7988.5566h-.3223l-.334-.8613h.5273c.5742 0 .9316-.0879 1.0781-.2402.1641-.2051.252-.5801.252-1.1602 0-.0996-.0059-.2051-.0059-.293-1.1074.832-2.5664 1.5176-4.3477 2.0742l-.4922-.832c1.998-.5684 3.5566-1.2949 4.6699-2.1738-.0586-.2051-.1406-.4102-.2227-.5977-.9609.7207-2.2441 1.3008-3.832 1.7637l-.4805-.8379c1.6699-.4336 2.9707-.9727 3.9023-1.6465-.0996-.1289-.1934-.252-.293-.375-.041.0234-.0762.0293-.1055.0527-.668.3164-1.6055.6562-2.8184 1.0137l-.4922-.8086c.9434-.1934 1.8223-.4629 2.6426-.8027.2461-.0996.4805-.2051.709-.3164h-2.2969v-.9023h6.0879v.9023h-2.2734c-.252.1641-.4863.3164-.709.4629.2988.3281.5449.6738.75 1.0488.9023-.2754 1.7637-.6562 2.584-1.1836l.6562.6562c-.5391.3398-1.0957.627-1.7051.8672.4746 1.2012 1.2422 2.1621 2.291 2.9062l-.7031.8086c-1.084-.9141-1.8691-2.0625-2.3672-3.4336-.1519.0411-.3043.0703-.4508.1114zm-.5625-4.8399h3.8438v1.9102h-.9727v-1.002h-6.8496v1.002h-.9727v-1.9102h3.9668c-.0996-.2637-.2168-.498-.3281-.7148l.9961-.1758c.1114.2695.2168.5684.3164.8906z" fill="#fff"/></svg>