<svg enable-background="new 0 0 29 43" height="43" viewBox="0 0 29 43" width="29" xmlns="http://www.w3.org/2000/svg"><path d="m0 0h29v43h-29z" fill="none"/><path d="m7.3325 14.732v1.3105h-1.752v1.3789h1.5693v10.1602h-1.2196v-.6973h-3.7774v.6973h-1.2207v-10.1602h1.5361v-1.3789h-1.8427v-1.3105zm-5.1797 8.4667h3.7773v-.9883h-.5488c-.6797 0-1.0205-.3652-1.0205-1.0625v-2.4824h-.6972v.7969c-.0166 1.5527-.3232 2.6895-.9053 3.4121l-.6055-.5479zm0-4.5332v3.4287c.3984-.6064.5977-1.4775.6055-2.6318v-.7969zm3.7774 6.9239v-1.1465h-3.7774v1.1465zm-1.5196-8.168v-1.3789h-.7636v1.3789zm1.5196 1.2441h-.6485v2.209c0 .1904.1084.29.3574.29h.291v-2.499zm7.4287 8.0606c-.208.4482-.6807.6807-1.4033.6807h-3.0039c-.7305 0-1.0801-.4893-1.0801-1.4697v-6.3574h3.8936v-3.5195h-4.0342v-1.3125h5.3535v6.1758h-3.8594v4.4668c0 .4648.0996.6973.3242.7305h2.1738c.3164 0 .5234-.208.6064-.5977.0908-.3906.1494-1.1377.1748-2.2246l1.3857.4395c-.1161 1.5193-.2899 2.5232-.5311 2.9881zm6.0508-12.0117c-.3564 1.1543-.8301 2.2422-1.4111 3.2539v9.6709h-1.3536v-7.6612c-.4062.5137-.8457 1.0117-1.2949 1.4941l-.4561-1.4697c1.4521-1.6846 2.5322-3.6436 3.2295-5.8857zm2.5068.623c-.125.6562-.249 1.2871-.415 1.8594h1.751v-2.8965h1.3789v2.8965h3.2031v1.3535h-3.2031v3.1211h3.7432v1.3359h-3.7432v4.5742h-1.3789v-4.5742h-4.1328v-1.3359h4.1328v-3.1211h-2.1915c-.3652.9121-.8047 1.7422-1.3281 2.498l-.8877-1.1455c.8467-1.2949 1.4277-2.8721 1.7178-4.7314z" fill="#fff"/></svg>